<svg aria-hidden="true" style="position:absolute;width:0;height:0" xmlns="http://www.w3.org/2000/svg" overflow="hidden"><defs><symbol id="logo-dark-them" viewBox="0 0 88 32"><path fill="var(--color1, #fff)" d="M12.3 4.8v13H8.7v-5h-5v5H0v-13h3.7v5h5v-5h3.6zM25.8 12.8v.9h-7.4c.2.5.5 1 .9 1.2.4.3 1 .4 1.6.4.5 0 .9 0 1.2-.2.4-.1.7-.4 1.1-.7l1.9 2c-1 1-2.4 1.6-4.3 1.6-1.2 0-2.2-.2-3.1-.7s-1.6-1-2.1-1.8a5 5 0 01-.7-2.7c0-1 .2-1.9.7-2.7.5-.8 1.1-1.4 2-1.8s1.8-.7 2.8-.7c1 0 2 .2 2.7.6.8.4 1.5 1 2 1.8.4.8.7 1.7.7 2.8zm-5.4-2.7a2 2 0 00-1.4.5c-.3.3-.5.7-.6 1.2h4a2 2 0 00-2-1.7zM28.1 4h3.6v13.8H28V4.1zM34.7 4h3.5v13.8h-3.5V4.1zM3.3 29.8H1.5l-.4.9h-1l1.9-4h.9l1.7 4h-1l-.3-.9zm-.3-.7l-.6-1.5-.6 1.5H3zM10.4 29.9v1.6h-.9v-.8H6.7v.8h-.9v-1.6H6c.2 0 .4-.2.5-.5l.2-1.5v-1.2h3.1v3.2h.6zM7.5 28l-.1 1.2c0 .3-.2.6-.3.7h1.8v-2.5H7.5v.6zM13.9 30.7c-.4 0-.8 0-1.1-.2a2 2 0 01-.8-.8c-.2-.3-.3-.6-.3-1a2 2 0 011-1.8l1.2-.3c.3 0 .7 0 1 .2l.6.5-.5.6c-.3-.4-.7-.5-1-.5l-.7.1-.5.5-.1.7a1.2 1.2 0 00.6 1c.2.2.4.2.6.2.4 0 .8-.1 1-.4l.6.5c-.1.2-.4.4-.7.5l-1 .2zM18.7 29h-.6v1.7h-1v-4h1v1.6h.6l1-1.6h1l-1.2 1.9 1.3 2h-1l-1-1.6zM22.3 26.7h.9v2.6l1.9-2.6h.9v4h-1V28l-1.9 2.6h-.8v-4zM28 26.7h.9v2.6l1.9-2.6h.9v4h-1V28l-1.9 2.6H28v-4zm1.8-.3c-.7 0-1-.3-1-.9h.5c0 .3.2.4.5.4h.4v-.4h.7c0 .3 0 .5-.3.7s-.4.2-.8.2zM39 29.8h-1.8l-.4.9h-1l1.9-4h.9l1.8 4h-1l-.4-.9zm-.3-.7l-.6-1.5-.6 1.5h1.2zM45.6 26.7v4h-1V29h-1.8v1.7H42v-4h1v1.5h1.7v-1.5h1zM50.4 27.4h-1.9v3.3h-.9v-4h2.8v.7zM55 26.7v4h-.8v-3.3h-1.4v.8l-.2 1.4c0 .4-.2.6-.3.8-.2.2-.4.3-.7.3a2 2 0 01-.5 0v-.8h.2c.2 0 .4-.1.5-.4l.1-1.2.1-1.6h3zM57 26.7h1v2.6l2-2.6h.8v4h-1V28L58 30.7h-1v-4zM62.8 26.7h1v2.6l1.8-2.6h.9v4h-1V28l-1.8 2.6h-.9v-4zm1.8-.3c-.7 0-1-.3-1-.9h.6c0 .3.1.4.4.4h.4l.1-.4h.6c0 .3 0 .5-.2.7s-.5.2-.9.2zM70.4 30.7c-.4 0-.8 0-1.1-.2a2 2 0 01-.8-.8c-.2-.3-.3-.6-.3-1s.1-.8.3-1.1c.2-.3.5-.6.8-.7a2.3 2.3 0 012 0c.3 0 .6.2.7.4l-.5.6c-.3-.4-.6-.5-1-.5l-.7.1-.5.5-.1.7a1.2 1.2 0 00.6 1c.2.2.4.2.7.2.4 0 .7-.1 1-.4l.5.5c-.1.2-.4.4-.7.5l-.9.2zM75.2 29h-.6v1.7h-1v-4h1v1.6h.6l1.1-1.6h1L76 28.6l1.3 2h-1l-1-1.6zM78.8 26.7h.9v2.6l1.9-2.6h.9v4h-1V28l-1.9 2.6h-.8v-4zM84.5 26.7h.9v2.6l1.9-2.6h.9v4h-1V28l-1.8 2.6h-1v-4zm1.8-.3c-.7 0-1-.3-1-.9h.6c0 .3.1.4.4.4h.4l.1-.4h.6c0 .3 0 .5-.2.7s-.5.2-.9.2zM73.2 15v2.8H62.7v-13H73v2.9h-6.5v2.2H72v2.7h-5.7V15h6.8zM88.3 4.8v13h-3L79.5 11v7H76v-13h3l5.8 6.9v-7h3.6z"/><path fill="var(--color2, #ff6b09)" d="M57.5 11c-.1-.3-.4-.8-.8-1.2-1-1.2-1.2-4-1.2-4l-.3-.2H55c-1.2 1.3-.7 3.3-.4 4.1l.2.7c.4 2.1-.4 3-.6 3.3l-.4-.1c-.4-.5-.6-2-.4-3.8v-1c-.4-2.4-1.9-3.9-2.3-4.4-1-1.5-1-4-1-4 0-.2-.2-.3-.3-.4h-.3c-1.7 1.2-1.6 4-1.3 5.6l.3 1.2c.7 1.7-.1 3.8-.1 3.8-.1.6-.3 1-.5 1-.3-.1-.4-.4-.4-.6 0-2.7-2.8-3.7-2.8-3.7a.3.3 0 00-.4.5v1.4c0 1-.2 1.9-.5 2.8-.6 2.1-.5 4.2-.5 4.3.5 5.5 8.4 6.4 13.1 3.3.6-.3 1-.7 1.3-1.1 1.7-2.4.7-5.7 0-7.4zm-12 5.4l-.3.3a.3.3 0 01-.4-.3v-1.5c0-.2.2-.3.4-.3s.3.2.3.3v1.5zm.1-3c0 .3-.1.4-.3.4a.3.3 0 01-.3-.4l.1-1.2c0-.2.2-.3.4-.3s.3.2.3.3l-.2 1.3zM55.3 4.4a.3.3 0 01-.2-.3c0-.2.1-.8.4-1.2h.5v.5a2 2 0 00-.3.8c0 .1-.2.3-.4.2zM43.4 6a2 2 0 00-.3-.7c-.2-.1-.2-.3 0-.5s.3-.1.4 0c.3.3.5 1 .6 1 0 .3-.1.4-.3.5-.2 0-.3 0-.4-.3z"/></symbol><symbol id="logo-fire" viewBox="0 0 26 32"><path fill="var(--color2, #ff6b09)" d="M22.6 16a9 9 0 00-1.2-1.8c-1.4-1.8-1.8-5.7-1.8-5.8l-.3-.4c-.2 0-.4 0-.5.2-1.7 1.8-1 4.7-.6 5.9l.3 1c.6 3-.6 4.5-.9 4.7-.2.1-.4 0-.6-.1-.6-.7-.8-2.8-.5-5.5v-1.5c-.6-3.4-2.7-5.6-3.3-6.4C11.7 4.1 11.6.5 11.6.5c0-.2-.1-.4-.3-.4h-.5C8.3 1.8 8.6 5.8 9 8c0 .5.2 1 .5 1.7 1 2.5-.2 5.6-.2 5.6v.1c-.2.8-.4 1.2-.7 1.2-.4 0-.6-.4-.6-.7 0-4-4-5.4-4-5.4l-.6.1v.6s.2.5 0 2c0 1.4-.3 2.8-.7 4-1 3.2-.8 6.1-.8 6.3.8 8 12.3 9.4 19.1 4.9a7 7 0 001.8-1.7c2.5-3.5 1-8.2 0-10.7zM5.1 23.8c0 .3-.2.5-.4.5a.5.5 0 01-.5-.4v-2.2c0-.3.3-.5.5-.4.3 0 .5.2.5.5v2zm.3-4.1c0 .2-.3.4-.5.4a.5.5 0 01-.5-.5l.3-1.9c0-.2.2-.4.5-.4.2 0 .4.3.4.6l-.2 1.8zM19.4 6.4A.5.5 0 0119 6c0-.2.2-1.2.7-1.7.2-.2.5-.2.7 0s.2.5 0 .7c-.2.2-.4.8-.4 1.1 0 .3-.3.5-.6.4zM2.2 8.8c-.1-.4-.4-1-.6-1.1-.2-.2-.2-.5 0-.7s.5-.2.7 0c.5.4.7 1.3.8 1.5 0 .3-.1.5-.4.6-.2 0-.5 0-.5-.3z"/></symbol><symbol id="logo-light-them" viewBox="0 0 88 32"><path fill="var(--color3, #111518)" d="M12.3 4.8v13H8.7v-5h-5v5H0v-13h3.7v5h5v-5h3.6zM25.8 12.8v.9h-7.4c.2.5.5 1 .9 1.2.4.3 1 .4 1.6.4.5 0 .9 0 1.2-.2.4-.1.7-.4 1.1-.7l1.9 2c-1 1-2.4 1.6-4.3 1.6-1.2 0-2.2-.2-3.1-.7s-1.6-1-2.1-1.8a5 5 0 01-.7-2.7c0-1 .2-1.9.7-2.7.5-.8 1.1-1.4 2-1.8s1.8-.7 2.8-.7c1 0 2 .2 2.7.6.8.4 1.5 1 2 1.8.4.8.7 1.7.7 2.8zm-5.4-2.7a2 2 0 00-1.4.5c-.3.3-.5.7-.6 1.2h4a2 2 0 00-2-1.7zM28.1 4h3.6v13.8H28V4.1zM34.7 4h3.5v13.8h-3.5V4.1zM3.3 29.8H1.5l-.4.9h-1l1.9-4h.9l1.7 4h-1l-.3-.9zm-.3-.7l-.6-1.5-.6 1.5H3zM10.4 29.9v1.6h-.9v-.8H6.7v.8h-.9v-1.6H6c.2 0 .4-.2.5-.5l.2-1.5v-1.2h3.1v3.2h.6zM7.5 28l-.1 1.2c0 .3-.2.6-.3.7h1.8v-2.5H7.5v.6zM13.9 30.7c-.4 0-.8 0-1.1-.2a2 2 0 01-.8-.8c-.2-.3-.3-.6-.3-1a2 2 0 011-1.8l1.2-.3c.3 0 .7 0 1 .2l.6.5-.5.6c-.3-.4-.7-.5-1-.5l-.7.1-.5.5-.1.7a1.2 1.2 0 00.6 1c.2.2.4.2.6.2.4 0 .8-.1 1-.4l.6.5c-.1.2-.4.4-.7.5l-1 .2zM18.7 29h-.6v1.7h-1v-4h1v1.6h.6l1-1.6h1l-1.2 1.9 1.3 2h-1l-1-1.6zM22.3 26.7h.9v2.6l1.9-2.6h.9v4h-1V28l-1.9 2.6h-.8v-4zM28 26.7h.9v2.6l1.9-2.6h.9v4h-1V28l-1.9 2.6H28v-4zm1.8-.3c-.7 0-1-.3-1-.9h.5c0 .3.2.4.5.4h.4v-.4h.7c0 .3 0 .5-.3.7s-.4.2-.8.2zM39 29.8h-1.8l-.4.9h-1l1.9-4h.9l1.8 4h-1l-.4-.9zm-.3-.7l-.6-1.5-.6 1.5h1.2zM45.6 26.7v4h-1V29h-1.8v1.7H42v-4h1v1.5h1.7v-1.5h1zM50.4 27.4h-1.9v3.3h-.9v-4h2.8v.7zM55 26.7v4h-.8v-3.3h-1.4v.8l-.2 1.4c0 .4-.2.6-.3.8-.2.2-.4.3-.7.3a2 2 0 01-.5 0v-.8h.2c.2 0 .4-.1.5-.4l.1-1.2.1-1.6h3zM57 26.7h1v2.6l2-2.6h.8v4h-1V28L58 30.7h-1v-4zM62.8 26.7h1v2.6l1.8-2.6h.9v4h-1V28l-1.8 2.6h-.9v-4zm1.8-.3c-.7 0-1-.3-1-.9h.6c0 .3.1.4.4.4h.4l.1-.4h.6c0 .3 0 .5-.2.7s-.5.2-.9.2zM70.4 30.7c-.4 0-.8 0-1.1-.2a2 2 0 01-.8-.8c-.2-.3-.3-.6-.3-1s.1-.8.3-1.1c.2-.3.5-.6.8-.7a2.3 2.3 0 012 0c.3 0 .6.2.7.4l-.5.6c-.3-.4-.6-.5-1-.5l-.7.1-.5.5-.1.7a1.2 1.2 0 00.6 1c.2.2.4.2.7.2.4 0 .7-.1 1-.4l.5.5c-.1.2-.4.4-.7.5l-.9.2zM75.2 29h-.6v1.7h-1v-4h1v1.6h.6l1.1-1.6h1L76 28.6l1.3 2h-1l-1-1.6zM78.8 26.7h.9v2.6l1.9-2.6h.9v4h-1V28l-1.9 2.6h-.8v-4zM84.5 26.7h.9v2.6l1.9-2.6h.9v4h-1V28l-1.8 2.6h-1v-4zm1.8-.3c-.7 0-1-.3-1-.9h.6c0 .3.1.4.4.4h.4l.1-.4h.6c0 .3 0 .5-.2.7s-.5.2-.9.2zM73.2 15v2.8H62.7v-13H73v2.9h-6.5v2.2H72v2.7h-5.7V15h6.8zM88.3 4.8v13h-3L79.5 11v7H76v-13h3l5.8 6.9v-7h3.6z"/><path fill="var(--color2, #ff6b09)" d="M57.5 11c-.1-.3-.4-.8-.8-1.2-1-1.2-1.2-4-1.2-4l-.3-.2H55c-1.2 1.3-.7 3.3-.4 4.1l.2.7c.4 2.1-.4 3-.6 3.3l-.4-.1c-.4-.5-.6-2-.4-3.8v-1c-.4-2.4-1.9-3.9-2.3-4.4-1-1.5-1-4-1-4 0-.2-.2-.3-.3-.4h-.3c-1.7 1.2-1.6 4-1.3 5.6l.3 1.2c.7 1.7-.1 3.8-.1 3.8-.1.6-.3 1-.5 1-.3-.1-.4-.4-.4-.6 0-2.7-2.8-3.7-2.8-3.7a.3.3 0 00-.4.5v1.4c0 1-.2 1.9-.5 2.8-.6 2.1-.5 4.2-.5 4.3.5 5.5 8.4 6.4 13.1 3.3.6-.3 1-.7 1.3-1.1 1.7-2.4.7-5.7 0-7.4zm-12 5.4l-.3.3a.3.3 0 01-.4-.3v-1.5c0-.2.2-.3.4-.3s.3.2.3.3v1.5zm.1-3c0 .3-.1.4-.3.4a.3.3 0 01-.3-.4l.1-1.2c0-.2.2-.3.4-.3s.3.2.3.3l-.2 1.3zM55.3 4.4a.3.3 0 01-.2-.3c0-.2.1-.8.4-1.2h.5v.5a2 2 0 00-.3.8c0 .1-.2.3-.4.2zM43.4 6a2 2 0 00-.3-.7c-.2-.1-.2-.3 0-.5s.3-.1.4 0c.3.3.5 1 .6 1 0 .3-.1.4-.3.5-.2 0-.3 0-.4-.3z"/></symbol><symbol id="menu_mobile" viewBox="0 0 48 32"><path d="M0 5.3V0h48v5.3H0zm0 13.4h48v-5.4H0v5.4zM0 32h48v-5.3H0V32z"/></symbol><symbol id="close_mobile" viewBox="0 0 32 32"><path d="M26.7 7.3l-2-2-7.8 7.8L9 5.3l-2 2 7.8 7.8L7.1 23l2 2 7.8-7.8 7.8 7.8 2-2-7.8-7.8 7.8-7.8z"/></symbol><symbol id="study-program" viewBox="0 0 31 32"><path d="M30.2 5a.3.3 0 00-.1-.1L25.3 0h-.1V0H3.9c-.1 0-.3.1-.3.3V29.7h.1L6 32c0 .2.3.2.4 0l2-2 2 2 .1.1h.2l2-2 2 2h.3l2-2 2 2h.4l2-2 1.9 2h.4l2-2 2 2h.3l2.2-2.2v-.1V5 5zm-4.8-4l3.8 3.8h-3.8V.9zm4.2 28.5l-1.9 1.8-2-2a.3.3 0 00-.3 0l-2 2-2-2a.3.3 0 00-.4 0l-2 2-1.9-2a.3.3 0 00-.4 0l-2 2-2-2a.3.3 0 00-.3 0l-2 2-2-2a.3.3 0 00-.4 0l-2 2-1.8-1.8V.5h20.6v4.6c0 .1.1.3.3.3h4.5v24z" fill="var(--color1, #ff6b09)"/><path d="M6.3 3.2h9.3a.3.3 0 100-.5H6.3a.3.3 0 100 .5zM6.3 5h15a.3.3 0 100-.6h-15a.3.3 0 100 .6zM6 6.6v9.2l.3.3h21.2l.3-.3V6.6c0-.2-.2-.3-.3-.3H6.3c-.1 0-.3.1-.3.3zm6.3.3h14.9v2.4H12.3V6.9zm0 3h14.9v2.4H12.3V10zm0 3h14.9v2.6H12.3v-2.6zm-5.7-6h5.1v2.4H6.6V6.9zm0 3h5.1v2.4H6.6V10zm0 3h5.1v2.6H6.6v-2.6zM27.5 17.3H6.3l-.3.3v9.2a.3.3 0 10.6 0V24h5.1v3a.3.3 0 10.6 0v-3h14.9v3a.3.3 0 10.6 0v-9.3l-.3-.3zm-15.8 6H6.6V21h5.1v2.5zm0-3H6.6V18h5.1v2.4zm15.5 3H12.3V21h14.9v2.5zm0-3H12.3V18h14.9v2.4zM2.3 0C2 0 2 0 2 .3v29.3a.3.3 0 10.6 0V.3c0-.2-.2-.3-.3-.3zM.7 0C.6 0 .4 0 .4.3v29.3a.3.3 0 10.6 0V.3C1 0 .9 0 .7 0z" fill="var(--color1, #ff6b09)"/></symbol><symbol id="vk" viewBox="0 0 32 32"><path d="M27.5 18.5l3.2 3.1 1.1 1.6c.4.9 0 1.8-.7 1.8h-4.7c-1.2.1-2.1-.3-3-1.2l-1.8-2-.8-.8c-.7-.4-1.2-.2-1.6.4a5 5 0 00-.5 2.2c0 1.1-.4 1.4-1.5 1.4a12 12 0 01-6.6-1.4c-1.9-1-3.3-2.5-4.5-4.2A56.6 56.6 0 010 8.9c-.3-.9 0-1.3.9-1.3h4.5c.7 0 1 .3 1.3 1 .8 2 1.8 3.9 3.1 5.7.3.4.7 1 1.2 1.2.5.4 1 .3 1.2-.3l.2-1.2c.2-1.4.2-2.8 0-4.2-.2-1-.7-1.5-1.5-1.6-.5-.1-.4-.3-.2-.5.4-.5.7-.8 1.4-.8h5.3c.8.2 1 .6 1.1 1.4v5.9c0 .3.2 1.2.8 1.5.4.1.8-.3 1-.6 1.3-1.3 2.2-2.9 3-4.5l1-2.2c.2-.6.5-.9 1.2-.8H31c.8.1 1 .5.8 1.3-.4 1.3-1.2 2.4-2 3.5L27.3 16c-.8 1-.7 1.6.2 2.6z"/></symbol><symbol id="phone" viewBox="0 0 32 32"><path fill="var(--color1, #ff6b09)" d="M4.7 0a2 2 0 00-1.4.7L.7 3.5l-.1.1-.1.2c-1 3.3-.4 7 1.4 10.6A32.2 32.2 0 0019.6 30c3.4 1 6.7 1 9.2-.7a.7.7 0 000-.1h.1l2.6-2.9a2 2 0 00-.2-2.8l-6-5.6a2 2 0 00-3 .1l-2.7 3c-2.2-.6-4.2-1.7-6-3.3s-3.1-3.5-4-5.7l2.8-3a2 2 0 00-.2-3L6.1.6A2 2 0 004.7 0zm0 1.3c.2 0 .4 0 .6.2l6 5.5c.4.3.4.8.1 1l-3 3.5a.6.6 0 00-.2.6c1 2.5 2.5 4.6 4.5 6.5s4.3 3.2 7 3.8a.6.6 0 00.6-.1l3-3.4c.3-.3.8-.3 1 0l6.2 5.5c.3.3.3.8 0 1L28 28.4c-2 1.4-4.8 1.5-8 .5s-6.6-3-9.7-5.7-5.7-6-7.3-9.3a13.2 13.2 0 01-1.3-9.5l2.5-2.8c.1-.2.3-.2.5-.2z"/></symbol><symbol id="group" viewBox="0 0 33 32"><path fill="var(--color1, #ff6b09)" d="M2 12.6v2.8c0 .1 0 .3.2.4a11.1 11.1 0 009 2.1 12 12 0 009.8 0c3.1.6 6.4 0 9-2.1.2-.1.2-.3.2-.4v-2.8c0-.5-.2-.8-.5-1l-4-2.2c1-1.1 1.6-2.6 1.7-4A4.2 4.2 0 0020.3 2l-.1.1-.1.1A4.4 4.4 0 0015.7 0h-.5v.1c-1.3.3-2.4 1-3 2.2-.8-1-2-1.5-3.2-1.5-3.9 0-5.6 4.6-2.6 8.6l-3.9 2.1c-.3.3-.5.6-.5 1zm19 4.2l-.3.2a11 11 0 01-11.3-1.3V13l.1-.3 4.6-2.5c.6.5 1.3.8 2 .8s1.5-.3 2-.8l4.6 2.5V15.7c-.5.5-1 .8-1.7 1.1zm8.2-4.4V15a10 10 0 01-6.7 2l1-.7c.2-.1.3-.3.3-.4v-3.1c0-.5-.2-.9-.6-1.1l-2.4-1.4.6-.3c.7.6 1.3.8 1.8.8a3 3 0 001.9-.8l4 2.3zm-6-10.6c1.4 0 2.6.9 3 2.1-.8 0-1.6-.5-2.2-1.1a.5.5 0 00-.8 0c-.6 1-1.5 1.7-2.5 1.8a4.8 4.8 0 00-.2-1.3c.6-.9 1.6-1.5 2.7-1.5zm-2.6 3.8c1.2 0 2.3-.7 3.1-1.7.8.6 1.8 1 2.7 1 0 1.8-1.4 5-3.2 5-1.3 0-2.5-2-2.9-3.3l.3-1zm0 3.8l-.8.5-1-.5 1-1.5c.2.6.5 1 .9 1.5zm-1.3-3C18.8 8 17.6 10 16.1 10c-1.7 0-3.2-3-3.5-4.7 0 0 2.4 0 4-2 .9.6 2 1.1 3 1.1 0 .7 0 1.5-.3 2zM16.1 1c2.8 0 3.4 2.4 3.4 2.4-1 0-2-.6-2.6-1.2a.5.5 0 00-.8 0 4 4 0 01-3.5 2A3.5 3.5 0 0116 1zm-3.6 7c.2.5.5 1 .9 1.4l-.9.5-1-.5 1-1.5zM9 1.7c1.1 0 2.2.6 2.7 1.5v.6c-.8-.2-1.4-.6-1.9-1.1a.5.5 0 00-.8 0 3.7 3.7 0 01-3.2 1.9 3.2 3.2 0 013.2-3zM6 5.7c1.4 0 2.7-.7 3.6-1.8.6.5 1.3.8 2 1l.4 1.7c-.3.9-.8 1.9-1.4 2.5-.4.5-1 .8-1.5.8-1.6 0-2.8-2.5-3.1-4.2zm-3 6.9l.2-.2 4-2.3.4.3c.5.3 1 .5 1.6.5.6 0 1.2-.3 1.7-.7V10l.7.3L9 11.8c-.3.2-.6.6-.6 1V16l.2.4 1.1.7a10 10 0 01-6.7-2v-2.5z"/><path fill="var(--color1, #ff6b09)" d="M31.3 20.8a2 2 0 00-2-.1l-6.2 3c0-1.2-1-2.1-2-2.1h-3.6a9.8 9.8 0 00-6-2.5H7v-1H0v11.4h7v-1.3a28.6 28.6 0 009.5 3.8c4.2-.2 14-7.2 14.7-7.7a2 2 0 000-3.5zM6 28.5H1V19h5v9.5zm24.7-5A50.8 50.8 0 0116.2 31C14.2 31 9 28.3 7 27v-7h4.5c1.9.1 4 1 5.5 2.4l.1.1h4a1.1 1.1 0 010 2.3h-7.2v1H21c.7 0 1.3-.4 1.7-.9l7-3.3c.3-.2.7-.2 1 0s.5.6.5 1c0 .3-.2.7-.5.9zM16.6 12.2h-1v.9h1v-1zM16.6 14h-1v1h1v-1zM16.6 15.8h-1v1h1v-1z"/></symbol><symbol id="instagram" viewBox="0 0 32 32"><path fill="var(--color3, #fff)" d="M.5 10L.8 8C1.6 3.8 4.5 1 8.6.9c5-.2 10-.2 14.9 0a8 8 0 017.9 8c.1 4.7.1 9.5 0 14.3a8 8 0 01-8 8H8.7C4 31 1 27.5.6 23.1V22 10zM16 28.5h6.8c3.6-.2 5.8-2.3 5.8-5.9V9.4c0-3.6-2.2-5.8-5.8-5.8H9.3c-3.5 0-5.7 2.2-5.8 5.7-.2 4.5-.2 9 0 13.4 0 3.5 2.2 5.6 5.8 5.7H16z"/><path fill="var(--color3, #fff)" d="M16 8.1A7.9 7.9 0 1016 24 7.9 7.9 0 0016 8zm0 13a5.2 5.2 0 110-10.3 5.2 5.2 0 010 10.4zM26.2 7.8a1.9 1.9 0 11-3.7 0 1.9 1.9 0 013.7 0z"/></symbol><symbol id="line" viewBox="0 0 213 32"><path fill="var(--color1, #ff6b09)" d="M0 4.3h213.3V25H0V4.3z"/></symbol><symbol id="open-book" viewBox="0 0 46 32"><path fill="var(--color1, #ff6b09)" d="M20.3 4.6H6.6v1h13.7v-1zM20.3 8.4H8.7v1h11.6v-1zM20.3 12.2H6.6v1h13.7v-1zM20.3 16H8.7v1h11.6v-1zM20.3 19.8H6.6v1h13.7v-1zM20.3 23.6H8.7v1h11.6v-1zM39 4.6H25.4v1H39v-1zM37 8.4H25.3v1h11.5v-1zM39 12.2H25.4v1H39v-1zM37 16H25.3v1h11.5v-1zM39 19.8H25.4v1H39v-1zM37 23.6H25.3v1h11.5v-1z"/><path fill="var(--color1, #ff6b09)" d="M44 3.4h-2V.6c0-.2-.2-.5-.5-.5H26.3a4 4 0 00-3.5 2 4 4 0 00-3.5-2H4.1c-.3 0-.5.3-.5.5v2.8H1.7c-.3 0-.5.3-.5.6v27.4c0 .2.2.5.5.5h42.2c.3 0 .5-.3.5-.5V4c0-.3-.2-.6-.5-.6zM26.2 1.1H41v27.4H25.2a3 3 0 00-1.9.7V4a3 3 0 013-3zm-21.7 0h14.8A3 3 0 0122.3 4v25.2a3 3 0 00-1.9-.7H4.6V1zM2.2 4.5h1.4V29c0 .3.2.5.5.5h16.3c.8 0 1.6.5 1.8 1.4h-20V4.5zm41.2 26.4h-20c.2-.9 1-1.4 1.8-1.4h16.3c.3 0 .5-.2.5-.5V4.5h1.4v26.4z"/></symbol><symbol id="ellipse" viewBox="0 0 32 32"><path fill="var(--color1, #ff6b09)" d="M16 32a16 16 0 110-32 16 16 0 010 32z"/></symbol><symbol id="arrow-1" viewBox="0 0 54 32"><path fill="var(--color1, #ff6b09)" d="M52 14a2 2 0 110 4v-4zM.6 17.4a2 2 0 010-2.8L13.3 1.9a2 2 0 112.8 2.8L4.8 16l11.3 11.3a2 2 0 11-2.8 2.8L.6 17.4zM52 18H2v-4h50v4z"/></symbol><symbol id="arrow-2" viewBox="0 0 54 32"><path fill="var(--color1, #ff6b09)" d="M2 14a2 2 0 100 4v-4zm51.4 3.4c.8-.8.8-2 0-2.8L40.7 1.9a2 2 0 10-2.8 2.8L49.2 16 37.9 27.3a2 2 0 102.8 2.8l12.7-12.7zM2 18h50v-4H2v4z"/></symbol><symbol id="audio-book" viewBox="0 0 39 32"><path fill="var(--color1, #ff6b09)" d="M3 29.5h12.3c.6 1.2 1.9 2 3.4 2h.7c1.5 0 2.8-.8 3.4-2H35c1.3 0 2.3-1 2.3-2.3v-22C37.3 4 36.3 3 35 3h-1.2V2c0-.9-.7-1.6-1.5-1.6H5.8C5 .4 4.3 1.1 4.3 2v1H3C1.8 3 .8 4 .8 5.3v21.9c0 1.2 1 2.3 2.2 2.3zm29.3-4.7H19.8V7C22.7 7.4 25 10 25 13v.7h-.7l-.4.5-1.2 5.5c0 .4.2.8.6 1l2.6.5a2 2 0 002.3-1.5l.8-3.2c.2-1-.5-2-1.5-2.3l-1-.2v-1c0-3.8-2.9-7-6.6-7.4V2h12.5v22.8zm-7.1-9.6l1.8.4c.3 0 .4.3.4.5l-.7 3.2c0 .2-.3.4-.5.3l-2-.4 1-4zM5.8 2h12.5v3.5a7.4 7.4 0 00-6.7 7.4v1l-.9.2a2 2 0 00-1.5 2.3l.7 3.2a2 2 0 002.4 1.5l2.6-.6c.4 0 .6-.5.6-.9l-1.3-5.5a.8.8 0 00-.9-.6h-.1V13c0-3 2.2-5.5 5-5.9v17.7H5.9V2zm7.1 13.2l.9 4-1.9.4a.4.4 0 01-.5-.3l-.7-3.2a.4.4 0 01.3-.5l2-.4zM2.3 5.2c0-.4.3-.7.7-.7h1.3v20.3c0 .8.7 1.5 1.5 1.5h26.5c.8 0 1.5-.7 1.5-1.5V4.5H35c.5 0 .8.3.8.8v21.9c0 .4-.3.7-.8.7H22.3c-.3 0-.6.2-.7.6-.3 1-1.2 1.5-2.2 1.5h-.7c-1 0-1.9-.6-2.2-1.5a.8.8 0 00-.7-.6H3a.8.8 0 01-.7-.7v-22z"/></symbol><symbol id="campfire" viewBox="0 0 24 32"><path fill="var(--color1, #ff6b09)" d="M22 16.6l-1.3-2c-1.5-1.8-2-5.8-2-5.9 0-.2 0-.3-.3-.4l-.5.1c-1.7 2-1 5-.6 6.1l.3 1.1c.7 3.2-.6 4.6-.9 4.9-.2 0-.4 0-.6-.2-.6-.6-.8-2.8-.5-5.7v-1.5c-.7-3.5-2.9-5.8-3.4-6.5-1.5-2.3-1.7-6-1.7-6.1 0-.2-.1-.4-.3-.4h-.5c-2.5 1.7-2.3 6-2 8.3l.6 1.8c1 2.5-.2 5.7-.2 5.7-.2.9-.5 1.4-.8 1.4-.4-.1-.6-.5-.6-.8 0-4.2-4.1-5.5-4.2-5.6a.5.5 0 00-.6.7c0 .1.2.6.1 2.1a18 18 0 01-.7 4.2c-1 3.2-.9 6.3-.9 6.4.8 8.3 12.7 9.7 19.7 5 .8-.4 1.4-1 1.9-1.7 2.6-3.5 1-8.4 0-11zM3.7 24.5c0 .2-.1.5-.4.5a.5.5 0 01-.5-.5v-2.2c0-.3.2-.5.5-.5s.5.3.5.5v2.2zm.3-4.3c0 .2-.3.4-.5.4a.5.5 0 01-.5-.5l.2-1.9c0-.3.3-.5.6-.4.3 0 .5.3.4.5l-.2 1.9zM18.6 6.6a.5.5 0 01-.4-.5c0-.2.2-1.2.7-1.7.2-.2.5-.2.7 0s.2.4 0 .6c-.2.2-.4.9-.4 1.2 0 .3-.3.5-.6.4zM.8 9C.7 8.7.5 8 .2 8c-.2-.2-.2-.5 0-.7s.5-.2.7 0c.5.4.8 1.4.8 1.6 0 .3 0 .5-.3.6C1 9.4.8 9.3.8 9z"/></symbol><symbol id="check-mark" viewBox="0 0 41 32"><path fill="var(--color1, #ff6b09)" d="M34.5 1.5a51.6 51.6 0 00-11.8 8.6A84.4 84.4 0 0013.1 21L3.6 6.5 0 16.5 13 32l3.6-7.3 1-1.6 1.9-3.3c1.6-2.7 3.3-5.3 5.2-7.8a49.5 49.5 0 0110-9.9A21 21 0 0139 0c-1.5.3-3 .8-4.5 1.5z"/></symbol><symbol id="rectangle" viewBox="0 0 31 32"><path fill="none" stroke="var(--color1, #ff6b09)" stroke-width=".6" d="M31 4.6V.3H.4v31.4h30.8v-4.3"/></symbol><symbol id="doted-line" viewBox="0 0 2 32"><path fill="none" stroke="var(--color1, #b9b9b9)" stroke-width=".8" d="M.8 0v32"/></symbol><symbol id="desctop-female-student" viewBox="0 0 31 32"><path fill="var(--color1, #ff6b09)" d="M8 23.3h12.3c0-1.4 0-3.8-.9-4.9l-2-1 .2-.3v-.4c-.4-.7-1-1-1.4-1.3l.2-.7c.2 0 .4-.2.4-.4l.2-1a.6.6 0 00-.2-.5c.7-1.4-.4-2.8-.5-2.8a3 3 0 00-2.6-1c-2 .4-2.8 2-2.4 3.8-.1.2-.2.4-.1.6l.2.9c0 .2.2.4.4.4 0 .5.3.9.5 1.2v.7L9 18.4s-1.1 1.2-1 4.7v.2zm11.9-.5h-2V22l1.3-3.1a9 9 0 01.7 4zM17 17c0 1-.6.7-.9 1.3a1 1 0 01-.2-.9c.1-.6-.3-.8-.2-1.4l.1-.2c.8.4 1.2 1 1.2 1.2zm-4.3-.7a2.3 2.3 0 002.6 0c0 .6.2.7.1 1v.2l-1.4 1.6-1.7-2 .4-.2v-.6zm-.6-1.9v-.9V12c.2-.4.5-.7 1-.8.9.5 2 1.3 2.8 2.2v1.1a1.9 1.9 0 01-3.8-.1zm-.2 3l2.1 2.4 1.5-1.7.1.3-1.6 2-2.3-3h.2zm4.4-3.4v-.6l.2-.2-.2.8zm-2.6-4.6s1.3-.2 2.2.8c0 .1.8 1 .5 2.2-.1-.5-.3-1.1-.6-1.4l-.3.3c.3.3.5 1.2.6 1.6-1.4-1.4-3-2.2-3-2.2-.2 0-.9.1-1.4 1.2v.7s-.1 0 0 0c-.4-1.5.2-2.8 2-3.2zm-2.1 3.7v.9l-.1-.7V13zm-.4 4.5l2.8 3.5 2-2.3.7.4-.2-.5.2-.4.5-.5 1.5.8-1.4 3.3v1H11v-1l-1.5-3.3 2-1zM9.1 19l1.3 3v1h-2c0-.8 0-2.9.7-4z"/><path fill="none" stroke="var(--color1, #ff6b09)" stroke-width=".6" d="M31 4.6V.3H.4v31.4h30.8v-4.3"/></symbol><symbol id="desctop-insurance" viewBox="0 0 31 32"><path fill="var(--color1, #ff6b09)" d="M8 15h-.3a6.3 6.3 0 0112.7 0H20c0-2.4-3.9-2.4-3.9 0 0 .1-.2.1-.2 0 0-2.4-4-2.4-4 0 0 .1-.2.1-.2 0 0-2.4-3.9-2.4-3.9 0zm3.9-1c0-1.3.2-2.5.5-3.5.3-.7.6-1.3 1-1.6a6.1 6.1 0 00-5.4 5c1-1.4 3-1.3 3.9.1zm4 0c0-1.3-.2-2.5-.5-3.4-.8-2.3-2-2.3-2.7 0-.3.9-.5 2-.6 3.4.8-1.4 3-1.4 3.9 0zm4.1-.2A6 6 0 0014.7 9c.4.3.7.9 1 1.6l.5 3.5c.8-1.4 3-1.5 3.8-.2zM13.2 17.9v-1.3c-.2.1-.4.4-.4.7 0 .2.2.4.4.6zm.3.4c-.5-.2-1-.5-1-1 0-.6.5-1 1-1.1v2zM14.9 19.8v1.3c.2-.1.4-.4.4-.7 0-.3-.2-.5-.4-.6zm-.3-.4c.5.2 1 .5 1 1 0 .6-.5.9-1 1.1v-2.1z"/><path fill="var(--color1, #ff6b09)" d="M14.9 15.1c1 .2 2 1 2 2.2 0 1-1.6.9-1.6 0 0-.3-.2-.6-.4-.7v1.8c1 .3 2 .9 2 2 0 1.2-1 2-2 2.2 0 1-1.7 1-1.7 0a3 3 0 01-1.5-.8 2 2 0 01-.6-1.4c0-1 1.7-1 1.7 0 0 .3.2.5.4.7v-1.8c-1-.3-2-1-2-2 0-1.2 1-2 2-2.2 0-1 1.7-1 1.7 0zm-1.4 0v.2c-1 .2-2.1.8-2.1 2 0 1 1.2 1.5 2 1.8v2.4c-.4-.2-.9-.5-.9-1 0-.7-1.1-.7-1.1 0 0 .4.2.8.5 1.1.4.4 1 .6 1.6.8v.2c0 .7 1.1.7 1.1 0v-.2c1-.2 2.1-.9 2.1-2 0-1-1.2-1.5-2-1.8v-2.4c.4.2.8.5.8 1 0 .7 1.2.7 1.2 0 0-1-1.1-1.7-2-1.9v-.2c0-.8-1.2-.8-1.2 0z"/><path fill="none" stroke="var(--color1, #ff6b09)" stroke-width=".6" d="M31 4.6V.3H.4v31.4h30.8v-4.3"/></symbol><symbol id="desctop-mobile-learning" viewBox="0 0 31 32"><path fill="var(--color1, #ff6b09)" d="M20.4 8.6h-7.1c-.5 0-.9.3-.9.8v3l-5.2 2.2-.1.1v.2l.7.4v4.3c-.3 0-.6.4-.6.7v.4c0 .1 0 .2.2.2h1.2s.2 0 .2-.2v-.4c0-.3-.3-.6-.6-.7v-4.1l.5.3v2c0 .7 1.9 1.1 3.7 1.1v3.4l.2.5c.1.2.4.3.7.3h7.1c.5 0 .8-.3.8-.8V9.4c0-.5-.3-.8-.8-.8zm-12 11.7v.3h-.8v-.3a.4.4 0 11.8 0zm12 2.5h-7.1a.5.5 0 01-.5-.5v-1.2h8.1v1.2c0 .3-.2.5-.5.5zm.5-2h-8.1v-1.9c1 0 3.8-.2 3.8-1.1v-2l1.5-1v-.2l-5.3-2.3V11h8.1v9.9zm-8.3-4.1c-1 0-2.8 0-3.6.6 0-1.6 0-1.5.2-1.6.5-.4 1.9-.6 3.4-.6.7 0 3.6.1 3.6.8v1.4c-.8-.5-2.6-.6-3.6-.6zm.2-7.3c0-.3.2-.5.5-.5h7.1c.3 0 .5.2.5.5v1.2h-8.1V9.4zm-.2 3.2l5 2.1-1.2.8c-.7-.7-2.9-.8-3.8-.8-.9 0-3 .1-3.7.8l-1.3-.8 5-2zM9 17.8c0-.3 1.3-.8 3.6-.8 2.4 0 3.6.5 3.6.8s-1.2.8-3.6.8c-2.3 0-3.6-.5-3.6-.8z"/><path fill="var(--color1, #ff6b09)" d="M16.8 21.4a.6.6 0 100 1.1.6.6 0 000-1.1zm0 .8a.2.2 0 110-.5.2.2 0 010 .5zM17.5 9.6h-1.3v.3h1.3v-.3z"/><path fill="none" stroke="var(--color1, #ff6b09)" stroke-width=".6" d="M31 4.6V.3H.4v31.4h30.8v-4.3"/></symbol><symbol id="female-student" viewBox="0 0 31 32"><path fill="var(--color1, #ff6b09)" d="M7 26h17c.1-2 0-5.2-1.2-6.7L20.2 18v-.5-.5c-.4-1-1.3-1.5-1.9-1.8.2-.3.3-.6.3-1 .3 0 .6-.2.6-.5l.3-1.3a.8.8 0 00-.2-.8c.8-2-.6-3.8-.7-4A4.2 4.2 0 0015 6.4c-2.9.6-4 2.8-3.3 5.4-.2.2-.3.4-.2.7l.3 1.3c0 .3.3.5.6.6 0 .6.3 1.1.7 1.6v1l-4.8 2.4S6.8 20.9 7 25.7v.3zm16.5-.6h-2.8v-1.2l1.8-4.2c1 1.5 1 4.5 1 5.4zm-3.9-8c0 1.2-.7.9-1.2 1.8-.3-.3-.4-.8-.3-1.2.2-.9-.4-1.1-.2-2l.1-.2c1.1.4 1.7 1.3 1.6 1.6zm-5.9-1a3.1 3.1 0 003.5 0c.1.8.4 1 .3 1.4v.3l-2 2.2-2.4-2.8.6-.3v-.8zm-.8-2.6v-1.2-2c.3-.6.7-1 1.2-1.3a17 17 0 014 3V14a2.6 2.6 0 01-5.2-.2zm-.3 4l3 3.4 2-2.3.1.4-2.2 2.8-3.2-4.1.3-.2zm6-4.5v-1l.3-.2-.2 1.2zM15.2 7c.1 0 1.7-.2 3 1.2 0 0 1.1 1.4.7 2.9-.1-.7-.4-1.5-.8-2l-.4.5c.4.4.6 1.6.7 2.3-1.8-2-4.1-3.1-4.1-3.1-.1 0-1.1.2-1.8 1.6v1h-.2c-.4-2.1.4-3.8 2.9-4.4zM12 12l.2.6v.7l-.2-1V12zm-.4 6.3l3.8 4.7 2.6-3.2c.3.3.5.3 1 .6l-.1-.7.2-.6c.3-.1.5-.3.7-.6l2.1 1-2 4.6v1.3h-9V24l-2-4.5 2.7-1.3zM8.6 20l1.8 4.2v1.2H7.6c0-1 0-3.9 1-5.4z"/><path fill="none" stroke="var(--color1, #ff6b09)" d="M30.4 5V.7H.5v30.4h29.9v-4.1"/></symbol><symbol id="insurance" viewBox="0 0 31 32"><path fill="var(--color1, #ff6b09)" d="M7 14.6c0 .2-.4.2-.4 0a8.7 8.7 0 0117.5 0c0 .2-.4.2-.4 0 0-3.3-5.3-3.3-5.3 0 0 .2-.4.2-.4 0 0-3.3-5.4-3.3-5.4 0 0 .2-.3.2-.3 0 0-3.3-5.4-3.3-5.4 0zm5.3-1.3c.1-1.9.4-3.6.8-4.8.4-1 .8-1.8 1.3-2.3A8.4 8.4 0 007.1 13c1.3-1.8 4.2-1.6 5.2.3zm5.7 0a18 18 0 00-.8-4.7c-1-3.2-2.7-3.2-3.7 0-.4 1.2-.7 2.8-.8 4.6 1.1-2 4.1-2 5.3 0zm5.6-.3a8.4 8.4 0 00-7.4-6.8c.5.5 1 1.2 1.3 2.3.4 1.2.7 3 .8 4.8 1-2 4-2 5.3-.3zM14.2 18.6v-1.8c-.3.2-.6.5-.6 1 0 .3.3.6.6.8zm.3.5c-.6-.3-1.2-.6-1.2-1.4 0-.8.6-1.2 1.2-1.5v3zM16.5 21.2V23c.3-.2.6-.5.6-1 0-.3-.3-.6-.6-.8zm-.4-.5c.6.3 1.3.6 1.3 1.4 0 .8-.6 1.2-1.3 1.5v-3z"/><path fill="var(--color1, #ff6b09)" d="M16.5 14.8c1.4.3 2.8 1.3 2.8 3 0 1.3-2.2 1.2-2.2 0 0-.5-.3-.8-.6-1v2.5c1.3.4 2.8 1.2 2.8 2.8 0 1.6-1.4 2.6-2.8 3 0 1.4-2.3 1.4-2.3 0-.8-.3-1.5-.6-2-1.1-.6-.5-.9-1.2-.9-2 0-1.2 2.3-1.2 2.3 0 0 .5.3.8.6 1v-2.5c-1.3-.4-2.9-1.2-2.9-2.8 0-1.6 1.5-2.6 2.9-3 0-1.4 2.3-1.4 2.3 0zm-2 0v.2c-1.3.3-2.8 1.2-2.8 2.7 0 1.5 1.6 2.2 2.8 2.5v3.4c-.6-.3-1.2-.7-1.2-1.5 0-.9-1.6-.9-1.6 0 0 .6.3 1.2.7 1.6a4 4 0 002.1 1v.3c0 1 1.6 1 1.6 0v-.2c1.4-.3 2.9-1.2 2.9-2.7 0-1.5-1.7-2.2-2.9-2.5v-3.4c.7.3 1.3.7 1.3 1.5 0 .9 1.6 1 1.6 0 0-1.5-1.5-2.4-2.9-2.6v-.3c0-1-1.6-1-1.6 0z"/><path fill="none" stroke="var(--color1, #ff6b09)" d="M30.4 5V.7H.5v30.4h29.9v-4.1"/></symbol><symbol id="mobile-learning" viewBox="0 0 31 32"><path fill="var(--color1, #ff6b09)" d="M24.7 5.3H14.5c-.7 0-1.2.5-1.2 1.2v4.2l-7.7 3.2-.1.2.1.2 1 .6v6.2c-.5.1-.9.6-.9 1.1v.6c0 .1.1.2.3.2h1.7c.1 0 .3 0 .3-.2v-.6c0-.5-.4-1-1-1v-6l.9.5v2.9c0 1 2.6 1.6 5.4 1.6V25c0 .3 0 .5.2.7.2.3.6.5 1 .5h10.2c.7 0 1.2-.5 1.2-1.2V6.5c0-.7-.5-1.3-1.2-1.3zM7.5 22.1v.4H6.2v-.4a.6.6 0 111.3 0zm17.2 3.5H14.5a.7.7 0 01-.7-.7v-1.6h11.6V25c0 .4-.3.7-.7.7zm.7-2.8H13.8v-2.7c1.3 0 5.4-.3 5.4-1.6v-3l2.2-1.3.1-.2-.1-.2-7.6-3.2v-2h11.6v14.2zm-11.9-6c-1.4 0-4 .2-5.2 1 0-2.4 0-2.2.2-2.4.8-.5 2.8-.9 5-.9 1 0 5.2.3 5.2 1.2v2c-1.2-.7-3.8-.9-5.2-.9zm.3-10.4c0-.4.3-.8.7-.8h10.2c.4 0 .7.4.7.8V8H13.8V6.5zm-.3 4.6l7.2 3-1.8 1.1c-1-1-4-1-5.4-1-1.3 0-4.5 0-5.4 1l-1.8-1 7.2-3zm-5.2 7.5c0-.4 1.8-1.2 5.2-1.2 3.4 0 5.2.8 5.2 1.2s-1.8 1.1-5.2 1.1c-3.4 0-5.2-.7-5.2-1.1z"/><path fill="var(--color1, #ff6b09)" d="M19.6 23.7a.8.8 0 100 1.7.8.8 0 000-1.7zm0 1.2a.3.3 0 110-.7.3.3 0 010 .7zM20.5 6.7h-1.9v.5h2v-.5z"/><path fill="none" stroke="var(--color1, #ff6b09)" d="M30.4 5V.7H.5v30.4h29.9v-4.1"/></symbol><symbol id="frame-student" viewBox="0 0 31 32"><path fill="var(--color1, #ff6b09)" d="M7 26h17c.1-2 0-5.2-1.2-6.7L20.2 18v-.5-.5c-.4-1-1.4-1.5-1.9-1.8.2-.3.3-.6.3-1 .3 0 .6-.2.6-.5l.3-1.3a.8.8 0 00-.2-.8c.8-2-.6-3.8-.7-4A4.2 4.2 0 0015 6.4c-2.9.6-4 2.8-3.3 5.4-.2.2-.3.4-.2.7l.3 1.3c0 .3.3.5.6.6 0 .6.3 1.1.7 1.6v1l-4.8 2.4S6.8 20.9 7 25.7v.3zm16.5-.6h-2.8v-1.2l1.8-4.2c1 1.5 1 4.5 1 5.4zm-3.9-8c0 1.2-.7.9-1.2 1.8-.3-.3-.4-.8-.3-1.2.2-.9-.4-1.1-.2-2l.1-.2c1.1.4 1.7 1.3 1.6 1.6zm-5.9-1a3.1 3.1 0 003.5 0c.1.8.4 1 .3 1.4v.3l-2 2.2-2.4-2.8.6-.3v-.8zm-.8-2.6v-1.2-2c.3-.6.7-1 1.2-1.3a17 17 0 014 3V14a2.6 2.6 0 01-5.2-.2zm-.3 4l3 3.4 2-2.3.1.4-2.2 2.8-3.2-4.1.3-.2zm6-4.5v-1l.3-.2-.2 1.2zM15.2 7c.1 0 1.7-.2 3 1.2 0 0 1.1 1.4.7 2.9-.1-.7-.4-1.5-.8-2l-.4.5c.4.4.6 1.6.7 2.3-1.8-2-4.1-3.1-4.1-3.1-.1 0-1.1.2-1.8 1.6v1h-.2c-.4-2.1.4-3.8 2.9-4.4zM12 12l.2.6v.7l-.2-1V12zm-.4 6.3l3.8 4.7 2.6-3.2c.3.3.5.3 1 .6l-.1-.7.2-.6c.3-.1.5-.3.7-.6l2.1 1-2 4.6v1.3h-9V24l-2-4.5 2.7-1.3zM8.6 20l1.8 4.2v1.2H7.6c0-1 0-3.9 1-5.4z"/><path fill="none" stroke="var(--color1, #ff6b09)" d="M30.4 5V.7H.5v30.4h29.9v-4.1"/></symbol><symbol id="doted-line" viewBox="0 0 2 32"><path fill="none" stroke="var(--color1, #b9b9b9)" stroke-width=".8" d="M.8 0v32"/></symbol><symbol id="logo-dark" viewBox="0 0 129 32"><path fill="var(--color1, #fff)" d="M19.1 6.8V25H14v-7.1H7V25H1.8V6.8H7v6.8h7V6.8H19zM38 18l-.1 1.2H27.7a3 3 0 001.2 1.7c.6.4 1.3.6 2.2.6.7 0 1.3-.1 1.8-.3.5-.2 1-.5 1.5-1L37 23c-1.4 1.6-3.4 2.3-6 2.3-1.7 0-3.1-.3-4.4-.9s-2.2-1.5-2.9-2.6c-.7-1.1-1-2.4-1-3.8a7 7 0 011-3.7c.7-1.1 1.6-2 2.8-2.6a8.7 8.7 0 017.8 0c1.1.5 2 1.4 2.7 2.5.6 1 1 2.4 1 3.9zm-7.5-3.8a3 3 0 00-2 .6 3 3 0 00-1 1.8h5.8a2.8 2.8 0 00-2.9-2.4zm10.8-8.5h5V25h-5V5.7zm9.2 0h5V25h-5V5.7zM104.9 21v4H90.3V6.8h14.2v4h-9.1v3h8v3.9h-8V21h9.5zM126 6.8V25h-4.2l-8-9.7V25h-5.1V6.8h4.2l8 9.7V6.8h5.1z"/><path fill="var(--color2, #ff6b09)" d="M83 15.6l-1.2-1.9C80.4 12 80 8.2 80 8.2c0-.2-.1-.4-.3-.4l-.5.1c-1.6 1.8-1 4.6-.6 5.7l.3 1c.6 3-.5 4.3-.8 4.6-.3 0-.4 0-.6-.2-.6-.6-.8-2.6-.5-5.3v-1.5c-.6-3.2-2.7-5.3-3.2-6C72.4 4 72.2.4 72.2.3c0-.1-.1-.3-.3-.3-.1-.1-.3-.1-.4 0-2.4 1.6-2.2 5.5-1.9 7.7 0 .6.2 1 .5 1.7 1 2.4-.2 5.4-.2 5.4-.2.8-.4 1.3-.7 1.3-.4-.1-.5-.4-.6-.7 0-4-3.9-5.2-4-5.2a.5.5 0 00-.5.6s.2.5.1 2a17 17 0 01-.7 3.9c-1 3-.8 5.9-.8 6 .7 7.7 12 9.1 18.6 4.7.7-.4 1.3-1 1.7-1.6 2.5-3.3 1-8 0-10.3zM66 23c0 .2-.2.4-.5.4a.5.5 0 01-.5-.4v-2.1c0-.3.3-.4.5-.4.3 0 .5.2.5.5v2zm.2-4c0 .2-.3.3-.5.3a.5.5 0 01-.5-.5l.3-1.7c0-.3.2-.5.5-.4.2 0 .4.2.4.5l-.2 1.7zM79.8 6.2a.5.5 0 01-.3-.5c0-.2.2-1.1.6-1.6.2-.2.5-.2.7 0s.2.4 0 .6c-.2.2-.4.8-.4 1.1 0 .3-.3.5-.6.4zM63 8.5c0-.4-.3-1-.5-1-.2-.3-.2-.5 0-.7s.4-.2.6 0c.5.4.8 1.3.8 1.5.1.2 0 .4-.3.5-.2 0-.5 0-.6-.3z"/></symbol><symbol id="logo-light" viewBox="0 0 128 32"><path fill="var(--color3, #111518)" d="M19.1 6.8V25H14v-7.1H7V25H1.8V6.8H7v6.8h7V6.8H19zM38 18l-.1 1.2H27.7a3 3 0 001.2 1.7c.6.4 1.3.6 2.2.6.7 0 1.3-.1 1.8-.3.5-.2 1-.5 1.5-1L37 23c-1.4 1.6-3.4 2.3-6 2.3-1.7 0-3.1-.3-4.4-.9s-2.2-1.5-2.9-2.6c-.7-1.1-1-2.4-1-3.8a7 7 0 011-3.7c.7-1.1 1.6-2 2.8-2.6a8.7 8.7 0 017.8 0c1.1.5 2 1.4 2.7 2.5.6 1 1 2.4 1 3.9zm-7.5-3.8a3 3 0 00-2 .6 3 3 0 00-1 1.8h5.8a2.8 2.8 0 00-2.9-2.4zm10.8-8.5h5V25h-5V5.7zm9.2 0h5V25h-5V5.7zM104.4 21v4H89.8V6.8h14.3v4h-9.2v3h8.1v3.9h-8V21h9.4zm21.2-14.2V25h-4.2l-8-9.7V25h-5V6.8h4.2l8 9.7V6.8h5z"/><path fill="var(--color2, #ff6b09)" d="M82.5 15.6c-.2-.6-.6-1.2-1.1-1.9-1.4-1.7-1.8-5.5-1.8-5.5 0-.2-.1-.4-.3-.4l-.5.1c-1.6 1.8-1 4.6-.6 5.7l.3 1c.6 3-.5 4.3-.8 4.6-.3 0-.4 0-.6-.2-.6-.6-.8-2.6-.5-5.3v-1.5C76 9 73.9 7 73.4 6.2 72 4 71.8.4 71.8.3c0-.1 0-.3-.2-.3H71c-2.4 1.6-2.2 5.5-1.8 7.7 0 .6.2 1 .4 1.7 1 2.4-.1 5.4-.1 5.4-.2.8-.4 1.3-.7 1.3h-.1c-.3-.1-.5-.4-.5-.7 0-4-4-5.2-4-5.2l-.4.1c-.2.1-.2.3-.1.5a17 17 0 01-.6 5.9c-1 3-.8 5.9-.8 6 .7 7.7 11.8 9.1 18.5 4.7.7-.4 1.3-1 1.7-1.6 2.4-3.3 1-8 0-10.3zM65.6 23c0 .2-.2.4-.4.4a.5.5 0 01-.5-.4v-2.1c0-.3.2-.4.5-.4.2 0 .4.2.4.5v2zm.2-4c0 .2-.2.3-.4.3a.5.5 0 01-.5-.5l.2-1.7c0-.3.3-.5.5-.4.3 0 .5.2.4.5l-.2 1.7zM79.4 6.2a.5.5 0 01-.3-.5c0-.2.1-1.1.6-1.6.2-.2.5-.2.6 0s.2.4 0 .6L80 5.8c0 .3-.3.5-.6.4zM62.7 8.5c0-.4-.3-1-.5-1-.2-.3-.2-.5 0-.7s.4-.2.6 0c.5.4.8 1.3.8 1.5 0 .2 0 .4-.3.5-.3 0-.5 0-.6-.3z"/></symbol><symbol id="how-female-student" viewBox="0 0 27 32"><path fill="var(--color1, #ff6b09)" d="M-.1 31.8h26.8c.1-3.1-.1-8.2-2-10.6L20.4 19l.2-.8-.1-.7a5.7 5.7 0 00-2.9-2.8l.5-1.5c.4-.2.8-.5.9-1l.5-2A1.3 1.3 0 0019 9c1.4-3-.9-6-1-6A6.6 6.6 0 0012.4.7C7.9 1.8 6.2 5 7.2 9.2c-.3.3-.4.7-.3 1.2l.4 1.9c.2.5.5.8 1 1a5 5 0 001.1 2.5v1.6L2 21s-2.4 2.6-2 10.2v.5zm25.9-1h-4.5v-1.9l3-6.6c1.4 2.4 1.5 7 1.5 8.5zm-6-12.6c-.2 2-1.3 1.4-2 2.9-.5-.6-.6-1.3-.5-2 .2-1.4-.6-1.8-.4-3.2l.3-.3c1.7.8 2.6 2.2 2.5 2.6zm-9.4-1.5a5 5 0 005.6 0c0 1.2.5 1.4.3 2.2v.5l-3 3.3-3.8-4.3.9-.5v-1.2zm-1.2-4.2v-1.8-3.3c.4-.9 1-1.5 1.9-1.9 2 1.2 4.5 3 6.2 4.8v2.5a4 4 0 01-8.1-.3zM8.6 19l4.7 5.3 3.2-3.6.2.6-3.4 4.4L8 19l.5-.2zm9.6-7.1v-1.5l.4-.5c0 .8 0 0-.4 2zm-5.6-10c.2 0 2.7-.5 4.8 1.7 0 .1 1.7 2.3 1 4.6-.2-1-.6-2.4-1.2-3l-.7.7c.6.6 1 2.5 1.2 3.5-2.9-3-6.5-4.8-6.6-4.9-.2.1-1.7.4-2.8 2.6V8.7H8c-.8-3.4.6-6.2 4.5-7zM8 9.7l.2 1v1L7.8 10l.2-.4zm-.7 9.8l6 7.5 4-5.1 1.7 1-.3-1.1c-.1-.3.2-.8.4-1a3 3 0 001-1l3.4 1.7-3.1 7.1v2H6.2v-2l-3.1-7 4.2-2.1zm-5 2.7l3 6.6v1.9H.7c0-1.5 0-6.1 1.5-8.5z"/></symbol><symbol id="how-mobile-learning" viewBox="0 0 33 32"><path fill="var(--color1, #ff6b09)" d="M30.2-.1H14.4c-1 0-1.8.8-1.8 1.8v6.5l-11.7 5c-.2 0-.3.1-.3.3l.2.3 1.5 1v9.4c-.7.2-1.3.9-1.3 1.7v1c0 .1.2.3.4.3H4c.2 0 .4-.2.4-.4V26c0-.8-.6-1.5-1.3-1.7v-9l1.2.7v4.4c0 1.6 4 2.5 8.3 2.5v7.5c0 .4 0 .7.3 1 .3.5.9.8 1.5.8h15.8c1 0 1.8-.8 1.8-1.8V1.7c0-1-.8-1.8-1.8-1.8zm-26.5 26v.6h-2v-.6a1 1 0 112 0zm26.5 5.5H14.4a1.1 1.1 0 01-1-1.1v-2.6h17.9v2.6c0 .6-.5 1-1.1 1zm1-4.5H13.4v-4c2 0 8.4-.5 8.4-2.6V16l3.4-2a.4.4 0 000-.7l-11.8-5V5.1h18v21.8zM13 17.8c-2.2 0-6.2.3-8 1.4 0-3.5-.1-3.3.3-3.6 1.1-.8 4.3-1.4 7.7-1.4 1.4 0 8 .5 8 1.8v3.2a18.3 18.3 0 00-8-1.4zm.3-16c0-.7.5-1.2 1.1-1.2h15.8c.6 0 1 .5 1 1.1v2.6H13.4V1.7zM13 8.8l11 4.7-2.7 1.6c-1.5-1.4-6.3-1.7-8.3-1.7-2.1 0-7 .3-8.4 1.7L2 13.6l11-4.7zM5 20.3c0-.6 2.7-1.7 8-1.7 5.2 0 8 1.1 8 1.7s-2.8 1.8-8 1.8c-5.3 0-8-1.2-8-1.8z"/><path fill="var(--color1, #ff6b09)" d="M22.3 28.3a1.3 1.3 0 100 2.5 1.3 1.3 0 000-2.5zm0 1.7a.5.5 0 110-1 .5.5 0 010 1zM23.8 2h-3V3h3V2z"/></symbol></defs></svg>